<?xml version="1.0" standalone="no"?><!DOCTYPE svg PUBLIC "-//W3C//DTD SVG 1.1//EN" "http://www.w3.org/Graphics/SVG/1.1/DTD/svg11.dtd">
<svg t="1668652597410" class="icon" viewBox="0 0 1024 1024" version="1.1" xmlns="http://www.w3.org/2000/svg" p-id="11163" width="200" height="200"><path d="M415.382588 966.776471L35.538824 586.932706a121.344 121.344 0 0 1 0-171.580235L415.382588 35.538824a121.313882 121.313882 0 0 1 171.550118 0L966.776471 415.352471a121.344 121.344 0 0 1 0 171.580235L586.932706 966.776471a121.374118 121.374118 0 0 1-171.550118 0" fill="#74cdfb" p-id="11164" data-spm-anchor-id="a313x.7781069.0.i27" class="selected"></path><path d="M501.157647 601.148235a63.518118 63.518118 0 0 1-63.548235-63.548235V224.677647h127.036235v312.922353a63.518118 63.518118 0 0 1-63.518118 63.548235M564.675765 707.011765a63.518118 63.518118 0 1 1-127.036236 0 63.518118 63.518118 0 0 1 127.036236 0" fill="#FFFFFF" p-id="11165"></path><path d="M983.341176 267.233882a170.104471 170.104471 0 0 1-170.134588 170.104471 170.104471 170.104471 0 1 1 0-340.269177 170.134588 170.134588 0 0 1 170.164706 170.164706" fill="#F83CB6" p-id="11166"></path><path d="M643.041882 267.233882a170.104471 170.104471 0 0 0 293.074824 117.519059L695.657412 144.263529a169.682824 169.682824 0 0 0-52.61553 122.970353" fill="#7E42B9" p-id="11167"></path></svg>
