<?xml version="1.0" encoding="UTF-8"?>
<svg width="20px" height="20px" viewBox="0 0 20 20" version="1.1" xmlns="http://www.w3.org/2000/svg" xmlns:xlink="http://www.w3.org/1999/xlink">
    <title>冰雹</title>
    <g id="页面-1" stroke="none" stroke-width="1" fill="none" fill-rule="evenodd">
        <g id="天气图标" transform="translate(-676.000000, -613.000000)" fill="#2C79FF" fill-rule="nonzero">
            <g id="形状" transform="translate(676.000000, 613.000000)">
                <path d="M2.1875,18.125 C1.66992188,18.125 1.25,18.546875 1.25,19.0625 C1.25,19.578125 1.66992188,20 2.1875,20 C2.70507812,20 3.125,19.5800781 3.125,19.0625 C3.125,18.5449219 2.70507812,18.125 2.1875,18.125 Z M7.1875,18.125 C6.671875,18.125 6.25,18.546875 6.25,19.0625 C6.25,19.578125 6.671875,20 7.1875,20 C7.703125,20 8.125,19.5800781 8.125,19.0625 C8.125,18.5449219 7.70703125,18.125 7.1875,18.125 Z M9.6875,14.375 C9.171875,14.375 8.75,14.796875 8.75,15.3125 C8.75,15.828125 9.171875,16.25 9.6875,16.25 C10.203125,16.25 10.625,15.8300781 10.625,15.3125 C10.625,14.7949219 10.2070312,14.375 9.6875,14.375 Z M4.6875,14.375 C4.171875,14.375 3.75,14.796875 3.75,15.3125 C3.75,15.828125 4.171875,16.25 4.6875,16.25 C5.203125,16.25 5.625,15.8300781 5.625,15.3125 C5.625,14.7949219 5.20703125,14.375 4.6875,14.375 Z M14.6875,14.375 C14.1699219,14.375 13.75,14.7949219 13.75,15.3125 C13.75,15.8300781 14.171875,16.25 14.6875,16.25 C15.203125,16.25 15.625,15.8300781 15.625,15.3125 C15.625,14.7949219 15.2070312,14.375 14.6875,14.375 Z M12.1875,18.125 C11.6699219,18.125 11.25,18.5449219 11.25,19.0625 C11.25,19.5800781 11.671875,20 12.1875,20 C12.703125,20 13.125,19.5800781 13.125,19.0625 C13.125,18.5449219 12.7070312,18.125 12.1875,18.125 Z M16.1992188,4.3828125 C15.90625,2.60742188 14.359375,1.25 12.5,1.25 C11.7589844,1.25 11.0511719,1.46363281 10.4457031,1.86289063 C9.63671875,0.71171875 8.3046875,0 6.875,0 C4.46484375,0 2.5,1.96289063 2.5,4.375 C2.5,4.48121094 2.50366406,4.58742188 2.51220703,4.69484375 C1.009375,5.31640625 0,6.78515625 0,8.4375 C0,10.6757812 1.82265625,12.5 4.0625,12.5 L15.9375,12.5 C18.1757812,12.5 20,10.6757812 20,8.4375 C20,6.28515625 18.3164062,4.51953125 16.1992188,4.3828125 Z M15.9375,11.25 L4.0625,11.25 C2.51210938,11.25 1.25,9.98828125 1.25,8.4375 C1.25,7.16445312 2.11679687,6.04960938 3.35820313,5.72734375 C3.67925781,5.643125 3.87929688,5.3234375 3.81367187,4.9984375 C3.771875,4.796875 3.75,4.58984375 3.75,4.375 C3.75,2.6515625 5.15234375,1.25 6.875,1.25 C8.08476562,1.25 9.19570313,1.96523438 9.70585937,3.07148437 C9.79132812,3.25824219 9.9634375,3.39132812 10.1660156,3.42546875 C10.3686719,3.46820312 10.575,3.39617187 10.7191406,3.24847656 C11.1953125,2.76601563 11.828125,2.5 12.5,2.5 C13.878125,2.5 15,3.621875 15,5 C15,5.34546875 15.2795312,5.625 15.625,5.625 L15.9375,5.625 C17.4882812,5.625 18.75,6.88671875 18.75,8.4375 C18.75,9.98828125 17.4882812,11.25 15.9375,11.25 Z"></path>
            </g>
        </g>
    </g>
</svg>