<?xml version="1.0" encoding="UTF-8"?>
<svg width="22px" height="20px" viewBox="0 0 22 20" version="1.1" xmlns="http://www.w3.org/2000/svg" xmlns:xlink="http://www.w3.org/1999/xlink">
    <title>多云（夜晚）</title>
    <g id="页面-1" stroke="none" stroke-width="1" fill="none" fill-rule="evenodd">
        <g id="天气图标" transform="translate(-673.000000, -305.000000)" fill="#2C79FF" fill-rule="nonzero">
            <g id="形状" transform="translate(673.000000, 305.000000)">
                <path d="M13.4252832,12.25 C13.2534091,10.6367188 11.9127904,9.375 10.2895343,9.375 C9.75977987,9.375 9.24912258,9.51171875 8.78124287,9.77539062 C8.08572535,9.12109375 7.18434076,8.75 6.23330362,8.75 C4.18074396,8.75 2.51089081,10.4125 2.44405085,12.5023437 C0.983502257,13.0589844 0,14.4871094 0,16.1277344 C0.00478574108,18.2617188 1.70384605,20 3.79459997,20 L13.320249,20 C15.410621,20 17.1098837,18.2617188 17.1098837,16.1230469 C17.0766547,14.0234375 15.4686763,12.3085938 13.4252832,12.25 Z M13.3221587,18.7500039 L3.92255075,18.7500039 C2.53648097,18.7500039 1.32992422,17.6671914 1.26461203,16.2511758 C1.1702722,14.9648438 2.00672655,13.8476563 3.22665129,13.5703125 C3.56069831,13.4269141 3.72890584,13.0976562 3.6506076,12.7695312 C3.64583332,12.7255859 3.63628475,12.671875 3.63628475,12.6230469 C3.63628475,11.1726562 4.78669594,9.99609375 6.20408501,9.99609375 C6.96758832,9.99609375 7.6932793,10.3574219 8.18942277,10.9824219 C8.43329314,11.25 8.81905519,11.2929688 9.07877617,11.0742188 C9.66200256,10.590625 10.4293253,10.4777344 11.1408844,10.8271875 C11.7489371,11.1259766 12.1350811,11.7588281 12.2095599,12.4447656 C12.2301886,12.6351172 12.2247153,12.615625 12.1931401,12.8498438 C12.1757809,13.0008984 12.2559697,13.6529688 12.9428935,13.5365625 C13.0885282,13.511875 13.2357289,13.4915625 13.3832734,13.495 C14.7735445,13.5272383 15.8922546,14.6961719 15.8922546,16.1211719 C15.8926326,17.5703125 14.7391659,18.7500039 13.3221587,18.7500039 Z M21.9082289,11.2226563 C21.7506776,10.8857422 21.4353839,10.6757812 21.0725385,10.6757812 C21.0152471,10.6757812 20.9579557,10.6806641 20.9006643,10.6953125 C20.6046587,10.7539063 20.3086532,10.7783203 20.0126477,10.7783203 C17.4880069,10.7783203 15.3720448,8.64433594 15.3720448,6.01660156 C15.3720448,4.30761719 16.2741933,2.72558594 17.7255752,1.87597656 C18.0645493,1.67578125 18.2457811,1.29003906 18.1793231,0.894726563 C18.1128651,0.499414063 17.8212519,0.196289063 17.434535,0.123242188 C16.9620719,0.0439453125 16.5457545,0 16.0988816,0 C12.0617481,0 8.7770415,3.36445313 8.7770415,7.5 C8.7770415,7.75390625 8.79136435,7.99804688 8.81523576,8.25195312 C8.88998193,8.26919531 8.95846425,8.30046875 9.03156807,8.32152344 C9.32321945,8.21875 9.69752322,8.1640625 10.0412716,8.14453125 C10.0145356,7.93359375 9.99543847,7.72265625 9.99543847,7.50390625 C9.99543847,4.05664062 12.7309115,1.25390625 16.0950622,1.25390625 C16.209645,1.25390625 16.3194535,1.25878906 16.4340363,1.25878906 C15.0067167,2.39160156 14.1473458,4.14941406 14.1473458,6.02441406 C14.1473458,9.33496094 16.7777846,12.0322266 20.010165,12.0322266 C20.110425,12.0322266 20.2106849,12.0273438 20.3061706,12.0224609 C19.5564172,12.7599609 18.6336438,13.2576172 17.6386833,13.5236328 C17.8467274,13.8864844 18.0016052,14.2818359 18.1176393,14.6955078 C19.5434312,14.2779297 20.8252306,13.4318359 21.7861982,12.2177734 C22.0189923,11.9375 22.0648254,11.5546875 21.9082289,11.2226563 Z"></path>
            </g>
        </g>
    </g>
</svg>