<?xml version="1.0" encoding="UTF-8"?>
<svg width="25px" height="20px" viewBox="0 0 25 20" version="1.1" xmlns="http://www.w3.org/2000/svg" xmlns:xlink="http://www.w3.org/1999/xlink">
    <title>多云（白天）</title>
    <g id="页面-1" stroke="none" stroke-width="1" fill="none" fill-rule="evenodd">
        <g id="天气图标" transform="translate(-672.000000, -267.000000)" fill="#2C79FF" fill-rule="nonzero">
            <g id="形状" transform="translate(672.000000, 267.000000)">
                <path d="M21.8085938,7.25 C21.1757812,5.91796875 19.8203125,5 18.28125,5 C16.6503906,5 15.2488281,5.98632812 14.6679688,7.44140625 C13.3984375,7.88671875 12.5,9.0859375 12.5,10.5 C12.5,12.296875 13.953125,13.75 15.75,13.75 L21.7460938,13.75 C23.546875,13.75 25,12.296875 25,10.5 C25,8.7265625 23.5703125,7.28125 21.8085938,7.25 Z M21.75,12.5 L15.7539062,12.5 C14.6445312,12.5 13.75,11.6054688 13.75,10.5 C13.75,9.421875 14.6015625,8.5546875 15.6640625,8.5078125 C15.8554688,7.23046875 16.9492188,6.25 18.28125,6.25 C19.6777344,6.25 20.8105469,7.33398438 20.9179688,8.70625 C21.171875,8.58417969 21.45,8.50117188 21.7480469,8.50117188 C22.8554688,8.5 23.75,9.39453125 23.75,10.5 C23.75,11.6054688 22.8554688,12.5 21.75,12.5 Z M15.8164062,15.7304688 L15.8368437,15.8344531 L12.5262969,15.1801562 C12.2304687,15.125 12.0234375,15.234375 11.8828125,15.4453125 L10,18.25 L8.1203125,15.4375 C7.97871094,15.2324219 7.73457031,15.125 7.48046875,15.1738281 L4.16992187,15.828125 L4.82421875,12.5175781 C4.87304687,12.2734375 4.77050781,12.0195312 4.56054688,11.8777344 L1.74804687,10 L4.56054688,8.1203125 C4.77050781,7.97871094 4.87304687,7.725 4.82421875,7.48046875 L4.171875,4.171875 L7.48242187,4.82617188 C7.69921875,4.875 7.9765625,4.765625 8.12109375,4.5625 L10,1.74804688 L11.8800781,4.56054688 C12.0216797,4.765625 12.2658203,4.87304688 12.5199219,4.82421875 L16.75,3.984375 C17.0917969,3.91601562 17.3113281,3.5890625 17.2429687,3.25195312 C17.1794922,2.91015625 16.8472656,2.68554688 16.5105469,2.75898437 L12.6875,3.515625 L10.515625,0.278320312 C10.3984375,0.107421875 10.203125,0 10,0 C9.796875,0 9.6015625,0.107421875 9.484375,0.278320312 L7.3125,3.515625 L3.49140625,2.75859375 C3.2859375,2.71484375 3.07617188,2.78320312 2.9296875,2.9296875 C2.78320312,3.07617188 2.71953125,3.29101562 2.75859375,3.49140625 L3.51523437,7.31445312 L0.278320312,9.484375 C0.107421875,9.6015625 0,9.7890625 0,10 C0,10.2099609 0.107421875,10.4003906 0.278320312,10.5175781 L3.51542969,12.6855469 L2.75859375,16.5078125 C2.71953125,16.7080078 2.78300781,16.9226563 2.92949219,17.0695313 C3.07597656,17.2164062 3.2859375,17.2794922 3.49121094,17.2404297 L7.3125,16.484375 L9.48046875,19.721875 C9.6015625,19.890625 9.796875,20 10,20 C10.2050781,20 10.4003906,19.8925781 10.5175781,19.7216797 L12.6875,16.484375 L16.5058594,17.2414063 C16.7158203,17.2853516 16.9257812,17.2169922 17.0675781,17.0705078 C17.2189453,16.9240234 17.2775391,16.7091797 17.2384766,16.5087891 L17.0416406,15.4951172 C17.0376875,15.4747617 16.9439844,15.0009766 16.425625,14.9970703 C16.0351562,14.9921875 15.7382812,15.3476562 15.8164062,15.7304688 Z M9.66015625,7.0390625 C10.4101562,6.95585937 11.1113281,7.15160156 11.6738281,7.53554687 C11.9096484,7.69664062 12.2433594,7.67785156 12.4828125,7.425 C12.7381641,7.15519531 12.6694922,6.70507812 12.3619922,6.496875 C11.4453125,5.87890625 10.2773438,5.6015625 9.04296875,5.87890625 C7.37109375,6.25390625 6.125,7.5703125 5.8359375,9.26171875 C5.37890625,11.9179688 7.38671875,14.2265625 10,14.2265625 C10.6207031,14.2265625 11.2125,14.0908203 11.7460938,13.8475781 C11.9841406,13.7390625 12.2652344,13.355 11.9995313,12.9510937 C11.8283594,12.6907422 11.5026562,12.5858203 11.2186719,12.7142187 C10.8476562,12.8867188 10.4335938,12.9765625 10,12.9765625 C8.24375,12.9765625 6.84335937,11.4578125 7.03984375,9.66171875 C7.1875,8.30078125 8.296875,7.19140625 9.66015625,7.0390625 Z"></path>
            </g>
        </g>
    </g>
</svg>