<?xml version="1.0" encoding="UTF-8"?>
<svg width="20px" height="20px" viewBox="0 0 20 20" version="1.1" xmlns="http://www.w3.org/2000/svg" xmlns:xlink="http://www.w3.org/1999/xlink">
    <title>夜晚</title>
    <g id="页面-1" stroke="none" stroke-width="1" fill="none" fill-rule="evenodd">
        <g id="天气图标" transform="translate(-674.000000, -229.000000)" fill="#2C79FF" fill-rule="nonzero">
            <g id="形状" transform="translate(674.000000, 229.000000)">
                <path d="M12.5820313,15.6796875 L12.3989063,15.6943359 C12.1022656,15.7529297 11.7969531,15.7822266 11.4942187,15.7822266 C8.87703125,15.7822266 6.748125,13.6470703 6.748125,11.0244141 C6.748125,9.31542969 7.67234375,7.72832031 9.1590625,6.87988281 C9.50390625,6.6796875 9.6875,6.296875 9.62109375,5.8984375 C9.55078125,5.5 9.2578125,5.19921875 8.83203125,5.12890625 C8.41015625,5.04296875 7.9375,4.96484375 7.48828125,4.96484375 C3.35625,4.96484375 0,8.36328125 0,12.5 C0,16.6367188 3.35976563,20 7.4921875,20 C9.76523438,20 11.890625,18.9828125 13.3085938,17.225 C13.5453906,16.9417969 13.5927734,16.5613281 13.4365234,16.228125 C13.28125,15.8945312 12.9453125,15.6796875 12.5820313,15.6796875 Z M7.4921875,18.75 C4.05078125,18.75 1.25,15.9453125 1.25,12.5 C1.25,9.0546875 4.05039062,6.25 7.4921875,6.25 C7.60695312,6.25 7.72289062,6.25366406 7.83886719,6.25976562 C6.37890625,7.390625 5.49609375,9.1484375 5.49609375,11.0234375 C5.49609375,14.3375 8.18671875,17.03125 11.4921875,17.03125 C11.5947266,17.03125 11.6972656,17.0288086 11.7985937,17.0239258 C10.6484375,18.1289062 9.1171875,18.75 7.4921875,18.75 Z M19.375,8.125 L18.125,8.125 L18.125,6.875 C18.125,6.53125 17.84375,6.25 17.5,6.25 C17.15625,6.25 16.875,6.52953125 16.875,6.875 L16.875,8.125 L15.625,8.125 C15.28125,8.125 15,8.40625 15,8.75 C15,9.09375 15.2795312,9.375 15.625,9.375 L16.875,9.375 L16.875,10.625 C16.875,10.96875 17.15625,11.25 17.5,11.25 C17.84375,11.25 18.125,10.9704688 18.125,10.625 L18.125,9.375 L19.375,9.375 C19.71875,9.375 20,9.09375 20,8.75 C20,8.40625 19.71875,8.125 19.375,8.125 Z M16.875,3.75 C16.875,3.40453125 16.5954688,3.125 16.25,3.125 L13.75,3.125 L13.75,0.625 C13.75,0.27953125 13.46875,0 13.125,0 C12.78125,0 12.5,0.27953125 12.5,0.625 L12.5,3.125 L10,3.125 C9.65625,3.125 9.375,3.4046875 9.375,3.75 C9.375,4.0953125 9.65625,4.375 10,4.375 L12.5,4.375 L12.5,6.875 C12.5,7.21875 12.78125,7.5 13.125,7.5 C13.46875,7.5 13.75,7.21875 13.75,6.875 L13.75,4.375 L16.25,4.375 C16.59375,4.375 16.875,4.09375 16.875,3.75 Z"></path>
            </g>
        </g>
    </g>
</svg>