<?xml version="1.0" encoding="UTF-8"?>
<svg width="20px" height="20px" viewBox="0 0 20 20" version="1.1" xmlns="http://www.w3.org/2000/svg" xmlns:xlink="http://www.w3.org/1999/xlink">
    <title>晴天</title>
    <g id="页面-1" stroke="none" stroke-width="1" fill="none" fill-rule="evenodd">
        <g id="天气图标" transform="translate(-672.000000, -191.000000)" fill="#2C79FF" fill-rule="nonzero">
            <g id="形状" transform="translate(672.000000, 191.000000)">
                <path d="M10.0000872,4.99975867 C7.24302916,4.99975867 5.03519524,7.24261665 5.03519524,9.96435723 C5.03519524,12.6860978 7.2422479,14.9641103 10.0000872,14.9641103 C12.7579264,14.9641103 14.9649791,12.7212523 14.9649791,9.99951174 C14.9649791,7.27777116 12.7579264,4.99975867 10.0000872,4.99975867 Z M10.0000872,13.714172 C7.92897331,13.714172 6.28520737,12.0353487 6.28520737,9.99951174 C6.25005077,7.89414697 7.89459798,6.21454242 10.0000872,6.21454242 C12.1055763,6.21454242 13.714967,7.89336576 13.714967,9.92920272 C13.714967,12.069722 12.0704197,13.714172 10.0000872,13.714172 Z M17.7228183,9.99951174 L19.7880727,7.02387745 C20.0194031,6.69072984 20.0639348,6.26844601 19.9089333,5.89502695 C19.7538927,5.52156884 19.4237723,5.25560541 19.0257216,5.18334335 L15.4608433,4.53884393 L14.817087,0.974957445 C14.7444691,0.575758411 14.4783337,0.246477798 14.1041895,0.0914073319 C13.7318812,-0.0636240739 13.3096505,-0.0172201157 12.9760535,0.212260738 L10.0000872,2.2784087 L7.02349578,0.21308101 C6.69146131,-0.0176107214 6.27153536,-0.0652255573 5.89692235,0.0910167262 C5.52348123,0.246048132 5.25394736,0.575367805 5.18363418,0.97456684 L4.53909667,4.53884393 L0.974608967,5.18334335 C0.576167601,5.25365238 0.246125336,5.52317032 0.0910847694,5.89424574 C-0.0639557973,6.26922722 -0.0193889587,6.69108139 0.211945317,7.02309624 L2.27735598,9.99951174 L0.212101569,12.975146 C-0.0192288009,13.3083718 -0.0637604829,13.7305775 0.0912410209,14.1039965 C0.246242525,14.4774156 0.576401978,14.7434181 0.974452715,14.8156801 L4.53933105,15.4601796 L5.1830873,19.024066 C5.25570519,19.4232651 5.52246559,19.7525457 5.8967661,19.9076162 C6.04325189,19.9686288 6.19708151,19.9979242 6.34950486,19.9979242 C6.58692904,19.9979242 6.82138444,19.9258965 7.02333953,19.7867627 L10.0000872,17.7217866 L12.9766785,19.786919 C13.308713,20.0176107 13.728639,20.0652256 14.103252,19.9089833 C14.4773962,19.7539519 14.7442738,19.4242416 14.8169308,19.0254332 L15.460687,15.4615467 L19.0251747,14.8170473 C19.4236161,14.7450196 19.754088,14.4790171 19.908777,14.1053637 C20.063466,13.7317102 20.0192469,13.3096998 19.7879165,12.9765132 L17.7228183,9.99951174 Z M14.8126339,14.3078927 C14.5556782,14.3542967 14.3548169,14.555693 14.3083321,14.8117741 L13.6899667,18.7607978 L10.3567312,16.4480214 C10.1418854,16.2991225 9.85867954,16.2991225 9.6438337,16.4480214 L6.41372424,18.8037644 L5.69145161,14.8117741 C5.6450449,14.5554977 5.44426171,14.3539842 5.18714984,14.3078927 L1.23789277,13.6891733 L3.55041521,10.356916 C3.6993229,10.1421609 3.6993229,9.85889369 3.55041521,9.64406055 L1.19570486,6.41453255 L5.18793109,5.6930838 C5.44535547,5.64425809 5.64457615,5.44504918 5.69145161,5.18724941 L6.30981698,1.23822569 L9.64305244,3.5510021 C9.85789828,3.69986193 10.1411042,3.69986193 10.35595,3.5510021 L13.5860594,1.19525907 L14.3075508,5.18724941 C14.3539575,5.44356488 14.5547407,5.6450393 14.8118526,5.69152138 L18.7611097,6.31024082 L16.4485872,9.64249812 C16.2996795,9.85733126 16.2996795,10.1405204 16.4485872,10.3553535 L18.7025153,13.60324 L14.8126339,14.3078927 Z"></path>
            </g>
        </g>
    </g>
</svg>