<?xml version="1.0" encoding="UTF-8"?>
<svg width="20px" height="20px" viewBox="0 0 20 20" version="1.1" xmlns="http://www.w3.org/2000/svg" xmlns:xlink="http://www.w3.org/1999/xlink">
    <title>沙尘</title>
    <g id="页面-1" stroke="none" stroke-width="1" fill="none" fill-rule="evenodd">
        <g id="天气图标" transform="translate(-676.000000, -688.000000)" fill="#2C79FF" fill-rule="nonzero">
            <g id="形状" transform="translate(676.000000, 688.000000)">
                <path d="M9.52777778,14.9206349 C8.99603175,14.9206349 8.57142857,15.3492063 8.57142857,15.8769841 C8.57142857,16.4007937 8.99603175,16.8253968 9.52777778,16.8253968 C10.0515873,16.8253968 10.4761905,16.3968254 10.4761905,15.8769841 C10.4761905,15.3492063 10.047619,14.9206349 9.52777778,14.9206349 Z M12.702381,18.0952381 C12.1706349,18.0952381 11.7460317,18.5238095 11.7460317,19.0515873 C11.7460317,19.5753968 12.1706349,20 12.702381,20 C13.2261905,20 13.6507937,19.5714286 13.6507937,19.0515873 C13.6507937,18.5238095 13.2222222,18.0952381 12.702381,18.0952381 Z M6.3531746,18.0952381 C5.82142857,18.0952381 5.3968254,18.5238095 5.3968254,19.0515873 C5.3968254,19.5753968 5.82142857,20 6.3531746,20 C6.87698413,20 7.3015873,19.5714286 7.3015873,19.0515873 C7.3015873,18.5238095 6.87301587,18.0952381 6.3531746,18.0952381 Z M4.90079365,7.59920635 L4.23809524,4.23809524 L7.59920635,4.90079365 C7.85218254,4.95039683 8.10515873,4.85119048 8.24920635,4.63293651 L10.1587302,1.77579365 L12.0686508,4.63293651 C12.2174603,4.85119048 12.4900794,4.96031746 12.7480159,4.89087302 L16.1507937,4.03769841 C16.264881,4.01289683 16.3640873,3.95337302 16.4434524,3.87400794 C16.5972222,3.7202381 16.6666667,3.49702381 16.6121032,3.26884921 C16.5277778,2.9265873 16.1803571,2.72321429 15.8430556,2.8077381 L12.8730159,3.5515873 L10.6853175,0.282539683 C10.5674603,0.109126984 10.3730159,0 10.1587302,0 C9.95238095,0 9.75396825,0.0992063492 9.63492063,0.282738095 L7.43253968,3.57142857 L3.55674603,2.80277778 C3.51706349,2.79285714 3.47242063,2.80277778 3.4327381,2.80277778 C3.38809524,2.80277778 3.3484127,2.79285714 3.30376984,2.80277778 C3.22440476,2.81765873 3.14503968,2.85238095 3.07559524,2.89702381 C3.05555556,2.90674603 3.04563492,2.93174603 3.02579365,2.94642857 C2.98115079,2.98611111 2.93646825,3.02579365 2.90178571,3.07043651 C2.85218254,3.13988095 2.82242063,3.21924603 2.80753968,3.30357143 C2.79761905,3.34325397 2.80753968,3.38293651 2.80753968,3.42261905 C2.80753968,3.46230159 2.79761905,3.50694444 2.80753968,3.54662698 L3.57142857,7.43075397 L0.282936508,9.63313492 C0.104166667,9.75396825 0,9.94444444 0,10.1587302 C0,10.3670635 0.109126984,10.5654762 0.282738095,10.6845238 L3.55178571,12.8722222 L2.8077381,15.8436508 C2.7234127,16.1809524 2.92678571,16.5281746 3.26884921,16.6126984 C3.49722222,16.6666667 3.7202381,16.5992063 3.87420635,16.4444444 C3.95357143,16.3650794 4.01309524,16.265873 4.03789683,16.1517857 L4.89107143,12.7490079 C4.96051587,12.4910714 4.85138889,12.2180556 4.63313492,12.0696429 L1.77579365,10.1587302 L4.63293651,8.24880952 C4.8531746,8.10714286 4.95238095,7.84920635 4.90079365,7.59920635 Z M19.0515873,7.3015873 C19.5753968,7.3015873 20,6.87301587 20,6.3531746 C20,5.82539683 19.5714286,5.3968254 19.0515873,5.3968254 C18.5198413,5.3968254 18.0952381,5.82539683 18.0952381,6.3531746 C18.0952381,6.87698413 18.5198413,7.3015873 19.0515873,7.3015873 Z M15.8769841,14.9206349 C15.3452381,14.9206349 14.9206349,15.3492063 14.9206349,15.8769841 C14.9206349,16.4007937 15.3452381,16.8253968 15.8769841,16.8253968 C16.4007937,16.8253968 16.8253968,16.3968254 16.8253968,15.8769841 C16.8253968,15.3492063 16.3968254,14.9206349 15.8769841,14.9206349 Z M19.0515873,18.0952381 C18.5198413,18.0952381 18.0952381,18.5238095 18.0952381,19.0515873 C18.0952381,19.5753968 18.5198413,20 19.0515873,20 C19.5753968,20 20,19.5714286 20,19.0515873 C20,18.5238095 19.5714286,18.0952381 19.0515873,18.0952381 Z M12.702381,11.7460317 C12.1706349,11.7460317 11.7460317,12.1746032 11.7460317,12.702381 C11.7460317,13.2261905 12.1706349,13.6507937 12.702381,13.6507937 C13.2261905,13.6507937 13.6507937,13.2222222 13.6507937,12.702381 C13.6507937,12.1746032 13.2222222,11.7460317 12.702381,11.7460317 Z M19.0515873,11.7460317 C18.5198413,11.7460317 18.0952381,12.1746032 18.0952381,12.702381 C18.0952381,13.2261905 18.5198413,13.6507937 19.0515873,13.6507937 C19.5753968,13.6507937 20,13.2222222 20,12.702381 C20,12.1746032 19.5714286,11.7460317 19.0515873,11.7460317 Z M15.8769841,8.57142857 C15.3452381,8.57142857 14.9206349,9 14.9206349,9.52777778 C14.9206349,10.0515873 15.3452381,10.4761905 15.8769841,10.4761905 C16.4007937,10.4761905 16.8253968,10.047619 16.8253968,9.52777778 C16.8253968,9 16.3968254,8.57142857 15.8769841,8.57142857 Z M8.13888889,8.13888889 C9.1952381,7.08373016 10.9166667,7.08095238 11.9746032,8.13888889 C12.222619,8.38690476 12.6246032,8.38690476 12.8722222,8.13888889 C13.1198413,7.89087302 13.1202381,7.48888889 12.8722222,7.24126984 C11.3194444,5.68849206 8.79285714,5.68611111 7.24126984,7.24126984 C5.68849206,8.79404762 5.68849206,11.3206349 7.24126984,12.8722222 C7.36527778,12.9962302 7.5277381,13.058254 7.69007937,13.058254 C7.85242063,13.058254 8.015,12.9962698 8.13888889,12.8722222 C8.38690476,12.6242063 8.38690476,12.2222222 8.13888889,11.9746032 C7.11507937,10.9166667 7.11507937,9.23015873 8.13888889,8.13888889 Z"></path>
            </g>
        </g>
    </g>
</svg>