<?xml version="1.0" encoding="UTF-8"?>
<svg width="20px" height="16px" viewBox="0 0 20 16" version="1.1" xmlns="http://www.w3.org/2000/svg" xmlns:xlink="http://www.w3.org/1999/xlink">
    <title>阴</title>
    <g id="页面-1" stroke="none" stroke-width="1" fill="none" fill-rule="evenodd">
        <g id="天气图标" transform="translate(-675.000000, -345.000000)" fill="#2C79FF" fill-rule="nonzero">
            <g id="形状" transform="translate(675.000000, 345.000000)">
                <path d="M17.0141777,9.5125 C16.8921337,8.10625 15.6810821,7 14.2697532,7 C13.7089768,7 13.1791808,7.16478125 12.7294957,7.4725 C12.0228925,6.55 10.9307554,6 9.76038511,6 C7.68876704,6 6.00831552,7.659375 6.00831552,9.75625 C6.00831552,9.759425 6.00825294,9.75319688 6.00831552,9.75625 C4.80665187,10.25625 4.00554277,11.434375 4.00554277,12.75 C4.00554277,14.5421875 5.46537635,16 7.2600485,16 L16.7450551,16 C18.5397273,16 19.9995608,14.54375 19.9995608,12.753125 C20.0277248,11.04375 18.6977585,9.634375 17.0141777,9.5125 Z M16.7732191,15 L7.35079914,15 C6.30810557,15 5.34520998,14.3325 5.08203312,13.325 C4.76158948,12.0975 5.5082482,10.90125 6.67392453,10.5859375 C6.91472666,10.523 7.07103682,10.291875 7.04224696,10.045 C7.01443658,9.8060625 7.00435075,9.844875 7.01351969,9.6334375 C7.05545274,8.6696875 7.58024179,7.7684375 8.43986941,7.3284375 C9.89657366,6.5825 11.4875263,7.1699375 12.182551,8.4609375 C12.4444448,8.9559375 12.8688136,8.6956875 12.9523668,8.60534375 C13.2376054,8.2971875 13.6145335,8.07753125 14.0307347,8.01878125 C15.2377183,7.8485 16.1336461,8.91503125 15.9928262,10.0287813 L15.9901975,10.0496563 C15.9552429,10.3262813 16.1874394,10.5634063 16.4652302,10.5343438 C17.7188408,10.4039688 18.9011026,11.2859063 19.0181396,12.5393438 C19.1421238,13.846875 18.0875387,15 16.7732191,15 Z M5.25727574,8.5 C5.25727574,8.22384375 5.03312166,8 4.75658255,8 L3.04233424,8 C2.05315226,8 1.15378212,7.303125 1.01984669,6.325 C0.8749586,5.265625 1.59345333,4.31875 2.62081316,4.15 C2.84262025,4.1130625 3.01229265,3.93265625 3.03544971,3.709375 C3.16375234,2.1646875 4.46868397,1 6.00831552,1 C7.24440184,1 8.37096151,1.78125 8.81313619,2.9453125 C8.91427621,3.21471875 9.22339167,3.345 9.48594266,3.2265625 C9.83110803,3.072375 10.1891037,2.99409375 10.5555485,3.00034375 C11.2011298,3.01142187 11.8041521,3.33971875 12.2428845,3.78471875 C12.8271309,4.44375 13.0148908,4.996875 13.0148908,5.5 C13.0148908,5.77615625 13.2437076,6 13.520278,6 C13.7968171,6 14.0209712,5.77615625 14.0209712,5.5 C14.0209712,3.5703125 12.4484817,2 10.5161189,2 C10.187539,2 9.86271428,2.046875 9.54602584,2.140625 C8.85600804,0.84375 7.4916191,0 6.00831552,0 C4.07751741,0 2.44869988,1.37125 2.09289478,3.24375 C0.753540501,3.646875 -0.146831027,4.94375 0.0198340891,6.4 C0.191887916,7.903125 1.54213227,9 3.05766797,9 L4.75658255,9 C5.03196381,9 5.25727574,8.775 5.25727574,8.5 Z"></path>
            </g>
        </g>
    </g>
</svg>