<?xml version="1.0" encoding="UTF-8"?>
<svg width="23px" height="18px" viewBox="0 0 23 18" version="1.1" xmlns="http://www.w3.org/2000/svg" xmlns:xlink="http://www.w3.org/1999/xlink">
    <title>阵雨</title>
    <g id="页面-1" stroke="none" stroke-width="1" fill="none" fill-rule="evenodd">
        <g id="天气图标" transform="translate(-675.000000, -381.000000)" fill="#2C79FF" fill-rule="nonzero">
            <g id="形状" transform="translate(675.000000, 381.000000)">
                <path d="M11.0076563,15.1910156 C11.0076563,14.9655938 10.8264594,14.6260547 10.4294219,14.6260547 C10.2304,14.6260547 10.0362656,14.726707 9.93096875,14.9121914 L8.6149375,17.1621914 C8.56405,17.2489219 8.54000781,17.3434922 8.54000781,17.4369023 C8.54234375,17.6484375 8.71125,18 9.1209375,18 C9.31859375,18 9.51157813,17.8989258 9.61939063,17.7143555 L10.9354219,15.4643555 C10.9860938,15.3773438 11.0076563,15.2824219 11.0076563,15.1910156 Z M5.045625,6.7359375 C5.045625,5.73398437 5.879375,4.921875 6.9,4.921875 C7.84803125,4.921875 8.625,5.625 8.737125,6.52570312 C8.90890625,6.3984375 9.08859375,6.2859375 9.2790625,6.18046875 C9.3365625,5.878125 9.41921875,5.596875 9.5234375,5.32265625 C9.013125,4.42265625 8.03203125,3.796875 6.9,3.796875 C5.23789063,3.796875 3.89023258,5.11945312 3.89023258,6.74121094 C3.8884375,8.3671875 5.2396875,9.6890625 6.9,9.6890625 C6.90898438,9.6890625 6.92246094,9.68466797 6.93144531,9.68466797 C6.971875,9.28458984 7.06621094,8.89787109 7.20996094,8.53330078 C7.1084375,8.55 7.0078125,8.5640625 6.90359375,8.5640625 C5.89375,8.5640625 5.045625,7.76601562 5.045625,6.7359375 Z M5.7571875,10.2585937 C5.65296875,10.096875 5.47328125,10.0054688 5.25046875,10.0054688 C5.21356094,10.0054688 5.17615,10.0089 5.13863125,10.0159594 L3.1581875,10.40625 L3.5578125,8.4375 C3.56523719,8.40048047 3.56885609,8.36342578 3.56885609,8.32682813 C3.56885609,8.14194141 3.47646078,7.96823438 3.31524516,7.86171094 L1.60820312,6.74296875 L3.31523437,5.625 C3.47648594,5.51861719 3.56884531,5.34181641 3.56884531,5.15847656 C3.56884531,5.12219531 3.56522641,5.08563281 3.55780172,5.04931641 L3.1581875,3.08039063 L5.1706875,3.47167969 C5.20820625,3.47874258 5.24565313,3.48217031 5.282525,3.48217031 C5.47522187,3.48217031 5.65375937,3.38858437 5.75905625,3.22999453 L6.9,1.56023438 L8.04101562,3.23015625 C8.15037344,3.38874609 8.32930625,3.48233203 8.52221875,3.48233203 C8.55912656,3.48233203 8.5965375,3.47890078 8.63409219,3.47184141 L11.485625,2.91796875 C11.7596125,2.86358203 11.9492188,2.62719141 11.9492188,2.36355469 C11.9492188,2.03178516 11.6618984,1.80246094 11.3778125,1.80246094 C11.3391078,1.80246094 11.2999719,1.80650742 11.2609078,1.81493789 L8.78671875,2.29394531 L7.374375,0.237304688 C7.27015625,0.0791015625 7.086875,0 6.9,0 C6.713125,0 6.5334375,0.0791015625 6.425625,0.237304688 L5.016875,2.29394531 L2.53790625,1.81054688 C2.49891406,1.80256289 2.45992188,1.79869922 2.42146875,1.79869922 C2.26934531,1.79869922 2.12530781,1.85913281 2.02148438,1.96435547 C1.909,2.07421875 1.84934375,2.21835938 1.84934375,2.36707031 C1.84934375,2.40264844 1.852765,2.4384375 1.85970813,2.47408594 L2.35384875,4.89986719 L0.256054687,6.27539062 C0.098828125,6.38085938 0,6.553125 0,6.74296875 C0,6.93193359 0.098828125,7.10753906 0.256054687,7.21300781 L2.35390625,8.58515625 L1.85976563,11.0109375 C1.8529375,11.0496094 1.84934375,11.0847656 1.84934375,11.1199219 C1.84934375,11.4345703 2.11546094,11.6883984 2.4221875,11.6883984 C2.46038906,11.6883984 2.49920156,11.6845348 2.53819375,11.6765508 L5.01356875,11.1931523 L6.41944375,13.249793 C6.5334375,13.4121094 6.713125,13.5 6.89640625,13.5 C7.00871094,13.5 7.12101563,13.4692383 7.21535156,13.4033203 C7.38246094,13.29525 7.47280781,13.1155313 7.47280781,12.9336328 C7.47280781,12.8270391 7.44180453,12.7196719 7.37707031,12.6255234 L5.7571875,10.2585937 Z M17.9076563,15.1910156 C17.9076563,14.9655938 17.7264594,14.6260547 17.3294219,14.6260547 C17.1304,14.6260547 16.9362656,14.726707 16.8309688,14.9121914 L15.5149375,17.1621914 C15.46405,17.2489219 15.4400078,17.3434922 15.4400078,17.4369375 C15.4423438,17.6484375 15.61125,18 16.0209375,18 C16.2185938,18 16.4115781,17.8989258 16.5193906,17.7143555 L17.8354219,15.4643555 C17.8860938,15.3773438 17.9076563,15.2824219 17.9076563,15.1910156 Z M20.6748438,6.9328125 C20.4520313,5.56171875 19.2804688,4.5 17.825,4.5 C17.5150391,4.5 17.2140625,4.54833984 16.9175781,4.64941406 C16.2114062,3.84609375 15.1871875,3.375 14.0875,3.375 C12.0570313,3.375 10.393125,4.9640625 10.35,6.946875 C8.9915625,7.41445313 8.05,8.68007812 8.05,10.125 C8.05,11.9840625 9.59998438,13.5 11.5,13.5 L19.55,13.5 C21.450375,13.5 23,11.9837109 23,10.125 C23,8.6765625 22.0440625,7.396875 20.6748438,6.9328125 Z M19.55,12.3750035 L11.5826563,12.3750035 C11.157875,12.3750035 9.20035938,12.0356754 9.20035938,10.1250035 C9.20035938,9.04851914 9.982,8.15273789 11.0367656,7.91894883 L11.054702,7.91546836 C11.318627,7.86428086 11.5046395,7.63766367 11.5046395,7.38003867 C11.5046395,7.29939023 11.4944944,7.3482293 11.4737441,6.95183555 C11.5503125,5.58984375 12.6895313,4.5 14.0910938,4.5 C14.9625781,4.5 15.7711719,4.93066406 16.2516563,5.65136719 L16.2612623,5.66582344 C16.3677452,5.82606562 16.5465702,5.91451875 16.7298873,5.91451875 C16.8208452,5.91451875 16.912953,5.89276055 16.9979452,5.84719453 L17.0107497,5.84032852 C17.2761481,5.69861367 17.5512497,5.63533242 17.8179059,5.63533242 C18.7343122,5.63533242 19.5544059,6.38169961 19.5576403,7.25990273 C19.5576403,7.25990273 19.5557716,7.38013711 19.5557716,7.38298477 C19.5557716,7.64377383 19.7444794,7.86884414 20.0067872,7.91911758 C21.0809375,8.128125 21.8535938,9.05625 21.8535938,10.125 C21.85,11.3625 20.8185938,12.3750035 19.55,12.3750035 Z M21.3576563,15.1910156 C21.3576563,14.9655938 21.1764594,14.6260547 20.7794219,14.6260547 C20.5804,14.6260547 20.3862656,14.726707 20.2809688,14.9121914 L18.9645781,17.1621914 C18.9136906,17.2489219 18.8896484,17.3434922 18.8896484,17.4369375 C18.8923438,17.6484375 19.06125,18 19.4709375,18 C19.6685938,18 19.8619375,17.8989258 19.96975,17.7143555 L21.2861406,15.4643555 C21.3360938,15.3773438 21.3576563,15.2824219 21.3576563,15.1910156 Z M14.4576563,15.1910156 C14.4576563,14.9655938 14.2764594,14.6260547 13.8794219,14.6260547 C13.6804,14.6260547 13.4862656,14.726707 13.3809688,14.9121914 L12.0649375,17.1621914 C12.01405,17.2489219 11.9900078,17.3434922 11.9900078,17.4369375 C11.9923438,17.6484375 12.16125,18 12.5709375,18 C12.7685938,18 12.9615781,17.8989258 13.0693906,17.7143555 L14.3854219,15.4643555 C14.4360938,15.3773438 14.4576563,15.2824219 14.4576563,15.1910156 Z"></path>
            </g>
        </g>
    </g>
</svg>