<?xml version="1.0" encoding="UTF-8"?>
<svg width="20px" height="20px" viewBox="0 0 20 20" version="1.1" xmlns="http://www.w3.org/2000/svg" xmlns:xlink="http://www.w3.org/1999/xlink">
    <title>雨</title>
    <g id="页面-1" stroke="none" stroke-width="1" fill="none" fill-rule="evenodd">
        <g id="天气图标" transform="translate(-676.000000, -417.000000)" fill="#2C79FF" fill-rule="nonzero">
            <g id="形状" transform="translate(676.000000, 417.000000)">
                <path d="M1.875,14.0625 C1.53320312,14.0625 1.25,14.3457031 1.25,14.6875 L1.25,16.25 C1.25,16.5917969 1.53320312,16.875 1.875,16.875 C2.21679688,16.875 2.5,16.59375 2.5,16.25 L2.5,14.6875 C2.5,14.3476562 2.21679688,14.0625 1.875,14.0625 Z M9.375,14.0625 C9.03320312,14.0625 8.75,14.3457031 8.75,14.6875 L8.75,16.25 C8.75,16.5917969 9.03320312,16.875 9.375,16.875 C9.71679688,16.875 10,16.59375 10,16.25 L10,14.6875 C10,14.3476562 9.71875,14.0625 9.375,14.0625 Z M5.625,17.1875 C5.28320312,17.1875 5,17.4707031 5,17.8125 L5,19.375 C5,19.71875 5.28515625,20 5.625,20 C5.96484375,20 6.25,19.71875 6.25,19.375 L6.25,17.8125 C6.25,17.4726562 5.96875,17.1875 5.625,17.1875 Z M16.875,14.0625 C16.5332031,14.0625 16.25,14.3457031 16.25,14.6875 L16.25,16.25 C16.25,16.5917969 16.5332031,16.875 16.875,16.875 C17.2167969,16.875 17.5,16.59375 17.5,16.25 L17.5,14.6875 C17.5,14.3476562 17.21875,14.0625 16.875,14.0625 Z M13.125,17.1875 C12.7832031,17.1875 12.5,17.4707031 12.5,17.8125 L12.5,19.375 C12.5,19.7167969 12.7832031,20 13.125,20 C13.4667969,20 13.75,19.7167969 13.75,19.375 L13.75,17.8125 C13.75,17.4726562 13.46875,17.1875 13.125,17.1875 Z M16.1992188,4.3828125 C15.90625,2.60742188 14.359375,1.25 12.5,1.25 C11.7589844,1.25 11.0511719,1.46363281 10.4457031,1.86289063 C9.63671875,0.71171875 8.3046875,0 6.875,0 C4.46484375,0 2.5,1.96289063 2.5,4.375 C2.5,4.48121094 2.50366406,4.58742188 2.51220703,4.69484375 C1.009375,5.31640625 0,6.78515625 0,8.4375 C0,10.6757812 1.82265625,12.5 4.0625,12.5 L15.9375,12.5 C18.1757812,12.5 20,10.6757812 20,8.4375 C20,6.28515625 18.3164062,4.51953125 16.1992188,4.3828125 Z M15.9375,11.25 L4.0625,11.25 C2.51210938,11.25 1.25,9.98828125 1.25,8.4375 C1.25,7.16445312 2.11679687,6.04960938 3.35820313,5.72734375 C3.67925781,5.643125 3.87929688,5.3234375 3.81367187,4.9984375 C3.771875,4.796875 3.75,4.58984375 3.75,4.375 C3.75,2.6515625 5.15234375,1.25 6.875,1.25 C8.08476562,1.25 9.19570313,1.96523438 9.70585937,3.07148437 C9.79132812,3.25824219 9.9634375,3.39132812 10.1660156,3.42546875 C10.3686719,3.46820312 10.575,3.39617187 10.7191406,3.24847656 C11.1953125,2.76601563 11.828125,2.5 12.5,2.5 C13.878125,2.5 15,3.621875 15,5 C15,5.34546875 15.2795312,5.625 15.625,5.625 L15.9375,5.625 C17.4882812,5.625 18.75,6.88671875 18.75,8.4375 C18.75,9.98828125 17.4882812,11.25 15.9375,11.25 Z"></path>
            </g>
        </g>
    </g>
</svg>