<?xml version="1.0" encoding="UTF-8"?>
<svg width="20px" height="20px" viewBox="0 0 20 20" version="1.1" xmlns="http://www.w3.org/2000/svg" xmlns:xlink="http://www.w3.org/1999/xlink">
    <title>雨加雪</title>
    <g id="页面-1" stroke="none" stroke-width="1" fill="none" fill-rule="evenodd">
        <g id="天气图标" transform="translate(-674.000000, -574.000000)" fill="#2C79FF" fill-rule="nonzero">
            <g id="形状" transform="translate(674.000000, 574.000000)">
                <path d="M7.18359375,14.4570312 C6.88574219,14.2861328 6.5046875,14.3837891 6.33398438,14.6914062 L3.83398438,19.0664062 C3.66308594,19.3642578 3.765625,19.75 4.06835938,19.9160156 C4.1640625,19.9726562 4.26953125,20 4.375,20 C4.58984375,20 4.8,19.8876953 4.9171875,19.6826172 L7.4171875,15.3076172 C7.58984375,15.0117188 7.484375,14.6289062 7.18359375,14.4570312 Z M10.9101563,14.4453125 C10.5976563,14.2890625 10.2265625,14.4111328 10.0703125,14.7236328 L9.4453125,15.9736328 C9.2890625,16.28125 9.41113281,16.6572266 9.72363281,16.8134766 C9.81640625,16.8574219 9.9140625,16.8818359 10.0068359,16.8818359 C10.2314453,16.8818359 10.4560547,16.7548828 10.5634766,16.5351562 L11.1884766,15.2851563 C11.3398438,14.9726563 11.2148438,14.59375 10.9101563,14.4453125 Z M8.4375,18.125 C7.921875,18.125 7.5,18.546875 7.5,19.0625 C7.5,19.578125 7.921875,20 8.4375,20 C8.953125,20 9.375,19.5800781 9.375,19.0625 C9.375,18.5449219 8.95703125,18.125 8.4375,18.125 Z M3.40820312,14.4453125 C3.09570312,14.2890625 2.72460938,14.4111328 2.56835938,14.7236328 L1.94335938,15.9736328 C1.78710938,16.28125 1.90917969,16.6572266 2.22167969,16.8134766 C2.31445312,16.8574219 2.41210938,16.8818359 2.50488281,16.8818359 C2.72949219,16.8818359 2.95410156,16.7548828 3.06152344,16.5351562 L3.68652344,15.2851563 C3.83789062,14.9726563 3.71601562,14.59375 3.40820312,14.4453125 Z M0.9375,18.125 C0.419921875,18.125 0,18.546875 0,19.0625 C0,19.578125 0.419921875,20 0.9375,20 C1.45507812,20 1.875,19.5800781 1.875,19.0625 C1.875,18.5449219 1.45507812,18.125 0.9375,18.125 Z M18.4101562,14.4453125 C18.0976562,14.2890625 17.7265625,14.4111328 17.5703125,14.7236328 L16.9453125,15.9736328 C16.7890625,16.28125 16.9111328,16.6572266 17.2236328,16.8134766 C17.3164062,16.8574219 17.4140625,16.8818359 17.5068359,16.8818359 C17.7314453,16.8818359 17.9560547,16.7548828 18.0634766,16.5351562 L18.6884766,15.2851563 C18.8398438,14.9726563 18.7148438,14.59375 18.4101562,14.4453125 Z M14.6835938,14.4570312 C14.3857422,14.2861328 14.0046875,14.3837891 13.8339844,14.6914062 L11.3339844,19.0664062 C11.1630859,19.3642578 11.265625,19.75 11.5683594,19.9160156 C11.6640625,19.9726562 11.7695312,20 11.875,20 C12.0898438,20 12.3,19.8876953 12.4171875,19.6826172 L14.9171875,15.3076172 C15.0898438,15.0117188 14.984375,14.6289062 14.6835938,14.4570312 Z M15.9375,18.125 C15.4199219,18.125 15,18.5449219 15,19.0625 C15,19.5800781 15.421875,20 15.9375,20 C16.453125,20 16.875,19.5800781 16.875,19.0625 C16.875,18.5449219 16.4570312,18.125 15.9375,18.125 Z M16.1992188,4.3828125 C15.90625,2.60742188 14.359375,1.25 12.5,1.25 C11.7589844,1.25 11.0511719,1.46363281 10.4457031,1.86289063 C9.63671875,0.71171875 8.3046875,0 6.875,0 C4.46484375,0 2.5,1.96289063 2.5,4.375 C2.5,4.48121094 2.50366406,4.58742188 2.51220703,4.69484375 C1.009375,5.31640625 0,6.78515625 0,8.4375 C0,10.6757812 1.82265625,12.5 4.0625,12.5 L15.9375,12.5 C18.1757812,12.5 20,10.6757812 20,8.4375 C20,6.28515625 18.3164062,4.51953125 16.1992188,4.3828125 Z M15.9375,11.25 L4.0625,11.25 C2.51210938,11.25 1.25,9.98828125 1.25,8.4375 C1.25,7.16445312 2.11679687,6.04960938 3.35820313,5.72734375 C3.67925781,5.643125 3.87929688,5.3234375 3.81367187,4.9984375 C3.771875,4.796875 3.75,4.58984375 3.75,4.375 C3.75,2.6515625 5.15234375,1.25 6.875,1.25 C8.08476562,1.25 9.19570313,1.96523438 9.70585937,3.07148437 C9.79132812,3.25824219 9.9634375,3.39132812 10.1660156,3.42546875 C10.3686719,3.46820312 10.575,3.39617187 10.7191406,3.24847656 C11.1953125,2.76601563 11.828125,2.5 12.5,2.5 C13.878125,2.5 15,3.621875 15,5 C15,5.34546875 15.2795312,5.625 15.625,5.625 L15.9375,5.625 C17.4882812,5.625 18.75,6.88671875 18.75,8.4375 C18.75,9.98828125 17.4882812,11.25 15.9375,11.25 Z"></path>
            </g>
        </g>
    </g>
</svg>