<?xml version="1.0" encoding="UTF-8"?>
<svg width="20px" height="23px" viewBox="0 0 20 23" version="1.1" xmlns="http://www.w3.org/2000/svg" xmlns:xlink="http://www.w3.org/1999/xlink">
    <title>雪</title>
    <g id="页面-1" stroke="none" stroke-width="1" fill="none" fill-rule="evenodd">
        <g id="天气图标" transform="translate(-676.000000, -533.000000)" fill="#2C79FF" fill-rule="nonzero">
            <g id="路径" transform="translate(676.000000, 533.000000)">
                <path d="M19.903245,17.25 C19.7706748,17.4802246 19.5339775,17.609375 19.287055,17.609375 C19.1656477,17.609375 19.0435706,17.5784912 18.9305578,17.5125234 L16.0902791,15.8638906 L16.6903946,18.1162734 C16.7928697,18.5008945 16.5662189,18.8938711 16.1853867,18.9976406 C16.1232765,19.0130848 16.061211,19.0215076 15.9998153,19.0215076 C15.6844867,19.0215076 15.3961277,18.8095213 15.3103969,18.4896326 L14.3405674,14.8482654 L10.7139767,12.7443359 L10.7139767,16.9530664 L13.3622542,19.6173828 C13.6413257,19.8981445 13.6413257,20.3532031 13.3622542,20.6335156 C13.2233881,20.771875 13.0403172,20.84375 12.81706,20.84375 C12.5938027,20.84375 12.4514539,20.773582 12.3120521,20.6331562 L10.7139767,18.9839844 L10.7139767,22.28125 C10.7139767,22.6785391 10.3944509,23 9.99955349,23 C9.60465607,23 9.28513029,22.6785391 9.28513029,22.28125 L9.28513029,18.9848828 L7.64686861,20.6330664 C7.36779705,20.9138281 6.91547786,20.9138281 6.63685282,20.6330664 C6.35822777,20.3523047 6.35778126,19.8972461 6.63685282,19.6169336 L9.28513029,16.9535156 L9.28513029,12.7443359 L5.65943259,14.8489258 L4.6896031,18.490293 C4.60378302,18.8103613 4.31564721,19.022168 4.00018472,19.022168 C3.93878898,19.022168 3.87667881,19.0137451 3.8146133,18.998301 C3.43369178,18.8944416 3.20690707,18.501465 3.3096054,18.1169338 L3.90972089,15.864551 L1.06944218,17.5131838 C0.957188435,17.5779297 0.834396949,17.609375 0.712945006,17.609375 C0.466067141,17.609375 0.229369807,17.4802246 0.096755002,17.25 C-0.100693708,16.9060781 0.0132121398,16.4665625 0.355063638,16.2689063 L3.19489583,14.6202734 L0.954955863,14.015625 C0.574078998,13.9123047 0.348142663,13.4810547 0.449947968,13.1351562 C0.551753273,12.7892578 0.946918602,12.5332031 1.32466986,12.6275391 L4.9450094,13.6023438 L8.5707071,11.5 L4.9450094,9.39765625 L1.32466986,10.3724609 C1.26260435,10.3904297 1.20053884,10.3949219 1.13936635,10.3949219 C0.824037812,10.3949219 0.535232237,10.1829355 0.449947968,9.86125 C0.348142663,9.47851562 0.574078998,9.08769531 0.954955863,8.94394531 L3.19511909,8.34064453 L0.355286895,6.72929688 C0.0132567913,6.53164063 -0.100604405,6.09589844 0.096755002,5.75 C0.293489289,5.40607812 0.724554383,5.28550781 1.06926357,5.48747656 L3.90954228,7.13610938 L3.3094268,4.88372656 C3.20806801,4.50117187 3.3956041,4.10630859 3.81532772,4.00208984 C4.19486504,3.90820312 4.5877978,4.12876953 4.69049613,4.51015625 L5.66032562,8.15152344 L9.28513029,10.2556641 L9.28513029,6.04648437 L6.63729933,3.38306641 C6.35822777,3.10230469 6.35822777,2.64724609 6.63729933,2.36693359 C6.91637089,2.08662109 7.36869008,2.08617187 7.64731512,2.36693359 L9.28513029,4.01511719 L9.28513029,0.71875 C9.28513029,0.321460937 9.60662073,0 9.99955349,0 C10.3924862,0 10.7139767,0.321460937 10.7139767,0.71875 L10.7139767,4.01511719 L12.3522384,2.36693359 C12.6313099,2.08617187 13.0836291,2.08617187 13.3622542,2.36693359 C13.6408792,2.64769531 13.6413257,3.10275391 13.3622542,3.38306641 L10.7139767,6.04648437 L10.7139767,10.2552148 L14.3396744,8.150625 L15.3095039,4.50925781 C15.4120682,4.12742187 15.806921,3.90820312 16.1842258,4.00119141 C16.5651473,4.10505078 16.791932,4.49802734 16.6892337,4.88255859 L16.0891182,7.13494141 L18.9293969,5.48630859 C19.2691944,5.28730469 19.7023135,5.40410156 19.903245,5.75 C20.1006937,6.09392188 19.9867879,6.5334375 19.6449364,6.73109375 L16.8044344,8.37792969 L19.0445976,8.98123047 C19.4254298,9.08508984 19.6514108,9.47806641 19.5496055,9.86125 C19.4644999,10.1827109 19.1757389,10.3949219 18.8601871,10.3949219 C18.7987914,10.3949219 18.7366812,10.386499 18.6746157,10.3710549 L15.0540976,9.39765625 L11.3882136,11.5 L15.0130182,13.6041406 L18.6342508,12.6275391 C19.0151723,12.5320801 19.4080604,12.7538594 19.5089727,13.1369531 C19.6108227,13.5201816 19.384797,13.9132031 19.0039648,14.0169727 L16.7638016,14.6202734 L19.6036338,16.2689062 C19.9836176,16.4683594 20.0997114,16.9041016 19.903245,17.25 Z"></path>
            </g>
        </g>
    </g>
</svg>