<?xml version="1.0" encoding="UTF-8"?>
<svg width="17px" height="22px" viewBox="0 0 17 22" version="1.1" xmlns="http://www.w3.org/2000/svg" xmlns:xlink="http://www.w3.org/1999/xlink">
    <title>雷电</title>
    <g id="页面-1" stroke="none" stroke-width="1" fill="none" fill-rule="evenodd">
        <g id="天气图标" transform="translate(-677.000000, -493.000000)" fill="#2C79FF" fill-rule="nonzero">
            <g id="形状" transform="translate(677.000000, 493.000000)">
                <path d="M16.8862475,10.51875 C16.6785673,9.9825 16.1498178,9.62714844 15.5582813,9.62714844 L10.0549976,9.62665859 L13.9914849,1.99111172 C14.2946972,1.40286953 14.125788,0.690017969 13.589949,0.287830469 C13.3724762,0.0949179687 13.0667382,0 12.7211214,0 C12.3869808,0 12.053815,0.114554687 11.788399,0.340570312 L0.484955565,9.96445312 C0.0405277426,10.3418047 -0.117215333,10.9467187 0.090332017,11.4825391 C0.297879367,12.0183594 0.82658453,12.375 1.41812106,12.375 L6.92140477,12.3746176 L2.98491745,20.0101645 C2.68170513,20.5984066 2.85061429,21.3112582 3.38645334,21.7134457 C3.64291877,21.9054687 3.94909985,22 4.25350854,22 C4.58720604,22 4.92081492,21.885875 5.18667404,21.6596016 L16.4901175,12.0732734 C16.9748672,11.6574219 17.1299517,11.0515625 16.8862475,10.51875 Z M4.25350854,20.5863281 L8.18999585,12.9507813 C8.40981703,12.5245312 8.38624419,12.0183594 8.12796206,11.6127344 C7.86963562,11.2073672 7.41324413,10.9604688 6.92184787,10.9604688 L1.41856416,10.9613281 L12.7220076,1.37496181 C12.7221804,1.37496181 12.7212277,1.37496181 12.7220076,1.37496181 C12.7220076,1.37496181 12.721919,1.37496181 12.7220076,1.37496181 L8.78640647,9.01054687 C8.56658529,9.43671094 8.59015813,9.94296875 8.84844026,10.3481641 C9.1067667,10.7536172 9.56315819,11.0004297 10.0545545,11.0004297 L15.5578382,11.0001762 L4.25350854,20.5863281 Z"></path>
            </g>
        </g>
    </g>
</svg>