<?xml version="1.0" encoding="UTF-8"?>
<svg width="20px" height="20px" viewBox="0 0 20 20" version="1.1" xmlns="http://www.w3.org/2000/svg" xmlns:xlink="http://www.w3.org/1999/xlink">
    <title>雷阵雨</title>
    <g id="页面-1" stroke="none" stroke-width="1" fill="none" fill-rule="evenodd">
        <g id="天气图标" transform="translate(-675.000000, -455.000000)" fill="#2C79FF" fill-rule="nonzero">
            <g id="形状" transform="translate(675.000000, 455.000000)">
                <path d="M16.2426521,4.38674109 C16.0863976,2.6320561 14.6058868,1.25002683 12.8128671,1.25002683 C12.1194881,1.25002683 11.4554067,1.45510466 10.8889844,1.8457291 C9.57644708,0.125028435 7.19747325,-0.572236193 4.98647295,0.534012225 C3.43369446,1.31096424 2.50007419,2.95119627 2.50007419,4.68752191 L2.50007419,4.70217032 C0.791822543,5.41798961 -0.278246916,7.23048702 0.0634815408,9.15235927 C0.413296165,11.1250127 2.2231132,12.5000107 4.22668574,12.5000107 L5.62516296,12.5000107 C5.96892273,12.5000107 6.25018072,12.2187611 6.25018072,11.8750116 C6.25018072,11.5312621 5.96892273,11.2500125 5.62516296,11.2500125 L4.1407458,11.2500125 C2.9297739,11.2500125 1.80044494,10.5156386 1.40785567,9.37110896 C0.857449407,7.7656425 1.80708576,6.14455107 3.3301759,5.73439541 L3.85284699,5.59767686 L3.77471977,4.92189657 C3.7598756,4.84377168 3.7501097,4.7656468 3.7501097,4.68752191 C3.7501097,2.79299337 5.29312228,1.25002683 7.18770735,1.25002683 C8.44750876,1.25002683 9.59988524,1.94846333 10.2053712,3.07619609 L10.6155391,3.85275748 L11.2112591,3.20822715 C11.7886193,2.58439992 12.627315,2.34846275 13.4824174,2.59807177 C14.3129097,2.84068861 14.8785508,3.61682031 14.9812881,4.47580346 C15.0096717,4.71345937 15.006238,4.69142815 14.970987,4.9558809 L14.873328,5.73712978 L15.7913228,5.64435648 C15.8363905,5.6367393 15.8910796,5.62892681 15.9379559,5.62892681 C17.4907344,5.62892681 18.7505358,6.88869063 18.7505358,8.44142279 C18.7505358,9.92579566 17.5883934,11.1320439 16.133274,11.2343875 L13.1214697,11.2452196 C12.7855226,11.2148563 12.5003583,11.5195434 12.5003583,11.8750116 C12.5003583,12.2201674 12.78021,12.5000107 13.125376,12.5000107 L15.7777951,12.5000107 C17.9563726,12.5000107 19.8638487,10.8558725 19.9927586,8.68126619 C20.1255749,6.43361316 18.4145888,4.54689711 16.2426521,4.38674109 Z M12.5003583,13.7500089 L8.87916165,13.7500089 L12.3472289,9.78517086 C12.5755166,9.52517124 12.5486409,9.13087493 12.2886335,8.90392213 C12.0298371,8.67810214 11.6354899,8.70126616 11.4073585,8.96251579 L7.03223418,13.9625086 C6.86988582,14.1468443 6.83203318,14.409383 6.93336419,14.6328202 C7.03469519,14.8562574 7.25411549,15.0000072 7.50021623,15.0000072 L11.123366,15.0000072 L7.65529876,18.9648452 C7.42701102,19.2248449 7.45388679,19.6191412 7.71389417,19.846094 C7.83225691,19.9492188 7.98069862,20 8.12523398,20 C8.29859828,20 8.47192352,19.9279689 8.5951692,19.7863675 L12.9702935,14.7863746 C13.1326418,14.602039 13.1704945,14.3395003 13.0691635,14.1160631 C12.9678325,13.8926259 12.746459,13.7500089 12.5003583,13.7500089 Z"></path>
            </g>
        </g>
    </g>
</svg>