<?xml version="1.0" encoding="UTF-8"?>
<svg width="22px" height="18px" viewBox="0 0 22 18" version="1.1" xmlns="http://www.w3.org/2000/svg" xmlns:xlink="http://www.w3.org/1999/xlink">
    <title>雾</title>
    <g id="页面-1" stroke="none" stroke-width="1" fill="none" fill-rule="evenodd">
        <g id="天气图标备份" transform="translate(-808.000000, -623.000000)" fill="#2C79FF" fill-rule="nonzero">
            <g id="编组备份" transform="translate(687.000000, 105.000000)">
                <g id="形状" transform="translate(121.000000, 518.000000)">
                    <path d="M5.775,11.25 L16.225,11.25 C18.1946875,11.25 19.8,9.60820313 19.8,7.59375 C19.8,5.66894531 18.3345937,4.08691406 16.4914063,3.94453125 C16.355625,2.36882812 15.0528125,1.125 13.475,1.125 C12.8648438,1.125 12.2804688,1.30957031 11.7820312,1.66113281 C11.0103125,0.624023438 9.8140625,0 8.525,0 C6.249375,0 4.4,1.88964844 4.4,4.21875 L4.4,4.23193359 C3.08515625,4.79443359 2.2,6.11279297 2.2,7.59392578 C2.2,9.60820313 3.80875,11.25 5.775,11.25 Z M5.1321875,5.1609375 C5.39570625,5.09041406 5.56875,4.83215625 5.53746875,4.55554688 C5.51375,4.3453125 5.5,4.29257812 5.5,4.21875 C5.5,2.51367188 6.8578125,1.125 8.525,1.125 C9.63359375,1.125 10.6476563,1.75359375 11.1804688,2.76855469 C11.3565719,3.10953516 11.8095313,3.17039063 12.065625,2.88720703 C12.5045938,2.40205078 13.1154375,2.17740234 13.7589375,2.27056641 C14.6303438,2.39656641 15.2824375,3.16037109 15.38625,4.05439453 C15.4079372,4.24103906 15.4039084,4.23249609 15.3741638,4.46044922 C15.3305763,4.81693359 15.6214231,5.12912109 15.9709138,5.09291016 C16.163125,5.07304688 16.149375,5.06601562 16.225,5.06601562 C17.5914063,5.06601562 18.7,6.19980469 18.7,7.59726562 C18.7,8.99050781 17.5914063,10.1285156 16.225,10.1285156 L5.775,10.1285156 C4.40859375,10.1285156 3.3,8.99015625 3.3,7.59726563 C3.3,6.46171875 4.0528125,5.45976563 5.1321875,5.1609375 Z M7.15,16.875 L2.75,16.875 C2.4475,16.875 2.2,17.128125 2.2,17.4375 C2.2,17.746875 2.4475,18 2.75,18 L7.15,18 C7.4525,18 7.7,17.746875 7.7,17.4375 C7.7,17.128125 7.4525,16.875 7.15,16.875 Z M21.45,16.875 L10.45,16.875 C10.1475,16.875 9.9,17.128125 9.9,17.4375 C9.9,17.746875 10.1475,18 10.45,18 L21.45,18 C21.7525344,18 22,17.7469102 22,17.4375 C22,17.1280898 21.7525,16.875 21.45,16.875 Z M19.8,14.0625 C19.8,13.753125 19.5525,13.5 19.25,13.5 L0.55,13.5 C0.247534375,13.5 0,13.753125 0,14.0308594 C0,14.3085938 0.247534375,14.625 0.55,14.625 L19.25,14.625 C19.5525,14.625 19.8,14.371875 19.8,14.0625 Z"></path>
                </g>
            </g>
        </g>
    </g>
</svg>