<?xml version="1.0" encoding="UTF-8"?>
<svg width="23px" height="18px" viewBox="0 0 23 18" version="1.1" xmlns="http://www.w3.org/2000/svg" xmlns:xlink="http://www.w3.org/1999/xlink">
    <title>霾</title>
    <g id="页面-1" stroke="none" stroke-width="1" fill="none" fill-rule="evenodd">
        <g id="天气图标备份" transform="translate(-808.000000, -664.000000)" fill="#2C79FF" fill-rule="nonzero">
            <g id="编组备份" transform="translate(687.000000, 105.000000)">
                <g id="形状" transform="translate(121.000000, 559.000000)">
                    <path d="M2.875,12.3749749 L14.375,12.3749749 C14.6912859,12.3749749 14.95,12.1218136 14.95,11.8124724 C14.95,11.5030608 14.6912859,11.2499699 14.375,11.2499699 L2.875,11.2499699 C2.55875,11.2499699 2.3,11.503096 2.3,11.8124724 C2.3,12.1218487 2.55875,12.3749749 2.875,12.3749749 Z M20.7,14.6249849 C20.7,14.3155734 20.4412859,14.0624824 20.125,14.0624824 L0.575,14.0624824 C0.258785938,14.0624824 0,14.3156085 0,14.6249849 C0,14.9343262 0.258785938,15.1874874 0.575,15.1874874 L20.125,15.1874874 C20.44125,15.1874874 20.7,14.9343613 20.7,14.6249849 Z M7.475,16.874995 L2.875,16.874995 C2.55875,16.874995 2.3,17.1281211 2.3,17.4374975 C2.3,17.7468739 2.55875,18 2.875,18 L7.475,18 C7.79125,18 8.05,17.7468739 8.05,17.4374975 C8.05,17.1281211 7.79125,16.874995 7.475,16.874995 Z M17.25,11.8089567 C17.25,12.1182979 17.5087141,12.3714592 17.825,12.3714592 L22.425,12.3714592 C22.7412859,12.3714592 23,12.1182979 23,11.8089567 C23,11.4995452 22.7412859,11.2464542 22.425,11.2464542 L17.825,11.2464542 C17.50875,11.2464542 17.25,11.4995803 17.25,11.8089567 Z M22.425,16.874995 L10.925,16.874995 C10.60875,16.874995 10.35,17.1281211 10.35,17.4374975 C10.35,17.7468739 10.60875,18 10.925,18 L22.425,18 C22.7412859,18 23,17.7468387 23,17.4374975 C23,17.1281211 22.74125,16.874995 22.425,16.874995 Z M11.5,4.4999397 C9.225875,4.4999397 7.2665625,6.15897055 6.94671875,8.35659755 C6.9,8.66597394 7.11921875,8.95074083 7.43546875,8.99292852 C7.460625,8.99644416 7.489375,8.9999598 7.518125,8.9999598 C7.7984375,8.9999598 8.0428125,8.79956828 8.05359375,8.51831703 C8.32671875,6.86948154 9.79296875,5.62494473 11.5,5.62494473 C13.2070313,5.62494473 14.6743594,6.86842684 14.9147813,8.51655921 C14.9591281,8.82526762 15.2500063,9.02949118 15.5656094,8.99433478 C15.8800625,8.95038927 16.0985625,8.66583331 16.0536406,8.35835537 C15.7334375,6.15932212 13.7748438,4.4999397 11.5,4.4999397 Z M4.06453125,8.70816162 C4.21669062,8.98280348 4.5669375,9.08292892 4.844375,8.93228372 C5.12346562,8.78395884 5.22603125,8.44220341 5.07405156,8.16974125 L3.74828125,5.73744523 L7.02039062,5.05189529 C7.22703125,5.00619197 7.3959375,4.85501941 7.4534375,4.65462789 L8.38673437,1.45750424 L11.1815937,3.28001238 C11.3747578,3.4052395 11.6265,3.4052395 11.8194844,3.28001238 L14.6143437,1.45750424 L15.5476406,4.65462789 C15.6060391,4.85459754 15.77225,5.00619197 15.9799687,5.05013747 L19.2520781,5.73568741 L17.8961562,8.16815921 C17.7439969,8.44062137 17.8467422,8.78234164 18.1258328,8.93070168 C18.213125,8.97886596 18.3065625,8.9999598 18.3676562,8.9999598 C18.5714937,8.9999598 18.7687187,8.89449058 18.8729375,8.70661474 L20.5979375,5.61285092 C20.6849781,5.45682679 20.6911594,5.27007596 20.6159062,5.10870805 C20.5401141,4.94832452 20.3907219,4.83076149 20.2137656,4.79339023 L16.5265781,4.02100397 L15.5034375,0.407382363 C15.4529094,0.23490503 15.3209469,0.0964590989 15.1485547,0.0340213201 C14.9767375,-0.0275023922 14.7834297,-0.00443978921 14.6314141,0.0944551837 L11.5,2.13672602 L8.36984375,0.0944200273 C8.21710937,-0.00443978921 8.02452031,-0.0275375486 7.85270312,0.0339861637 C7.67984375,0.0965997246 7.546875,0.235045655 7.4965625,0.407382363 L6.44359375,4.02181257 L2.75640625,4.79419883 C2.5774375,4.83040993 2.4279375,4.94994171 2.35210937,5.10814555 C2.27685625,5.26965408 2.2830375,5.45640491 2.37007812,5.61228842 L4.06453125,8.70816162 Z"></path>
                </g>
            </g>
        </g>
    </g>
</svg>