<svg xmlns="http://www.w3.org/2000/svg" viewBox="0 0 200 200.03"><defs><style>.cls-1{fill:#e9f4ff;}.cls-2{fill:#2595e8;}.cls-3{fill:#3a9ced;}.cls-4{fill:#59adf8;}.cls-5{fill:#6bc2fc;}</style></defs><g id="图层_2" data-name="图层 2"><g id="图层_1-2" data-name="图层 1"><path class="cls-1" d="M0,100a100,100,0,1,0,200,0v0A100,100,0,0,0,0,100Z"/><path class="cls-2" d="M124,120.09h13.74C129.18,132,121,143.54,112.73,155l-.6-.21c1.8-7.55,3.6-15.1,5.47-23H106.84c1.23-5.57,2.37-10.81,3.63-16.53a77,77,0,0,0-8.17,2.51c-5.26,2.29-10,1.32-14.28-2.08a53.64,53.64,0,0,1-7.9-7.45c-2.4-2.89-1.65-4.54,2-5.16,7.75-1.3,15.52-2.46,23.3-3.9-1.63,0-3.25,0-4.89,0-6.69-.06-13.4-.17-20.09-.2-4.12,0-7-2.15-9.49-5.12a32.07,32.07,0,0,1-6.52-13.08c-.76-3.06.08-3.91,3.25-3.17,8,1.86,16,3.79,24,5.66a119.5,119.5,0,0,0,12.4,2.37c-4.86-1.6-9.76-3.07-14.55-4.84C82.22,78.15,75,75.2,67.73,72.42A7.83,7.83,0,0,1,63.14,68c-2.84-6.49-5-13.16-5-20.32,0-2.62.85-3.25,3.09-2.17,22.85,11,46.41,20.35,70.07,29.43a33.77,33.77,0,0,1,6.47,3.51c3.93,2.61,5.21,5.91,3.17,10-4.17,8.51-8.77,16.8-13.23,25.16-1.09,2.08-2.33,4.07-3.7,6.44Z"/><path class="cls-3" d="M130.53,74.64c-23.41-9-46.72-18.21-69.31-29.14-2.24-1.08-3.11-.45-3.1,2.17.06,7.16,2.18,13.82,5,20.32a7.83,7.83,0,0,0,4.59,4.43c7.28,2.78,14.49,5.74,21.8,8.44,4.79,1.77,9.69,3.24,14.55,4.84a119.69,119.69,0,0,1-12.41-2.37c-8-1.87-16-3.8-24-5.66-3.16-.74-4,.11-3.24,3.17A32.3,32.3,0,0,0,71,93.92c2.48,3,5.38,5.11,9.5,5.12,6.69,0,13.4.14,20.09.2,1.63,0,3.25,0,4.89,0-7.79,1.44-15.56,2.59-23.3,3.9-3.67.62-4.41,2.27-2,5.16a53.11,53.11,0,0,0,7.9,7.45c4.27,3.4,9,4.37,14.28,2.08a74.7,74.7,0,0,1,8.17-2.51l-1.82,8.27a68.34,68.34,0,0,0,21.87-48.95Z"/><path class="cls-4" d="M67.74,72.42c7.28,2.77,14.49,5.73,21.8,8.43,4,1.48,8.06,2.75,12.11,4.06a68.24,68.24,0,0,0,7.9-18.46C93.23,60,77.05,53.16,61.22,45.5c-2.24-1.08-3.11-.45-3.1,2.17.06,7.16,2.18,13.82,5,20.32A7.89,7.89,0,0,0,67.74,72.42ZM91.68,83.33c-8-1.87-16-3.8-24-5.66-3.16-.74-4,.11-3.24,3.17A32.3,32.3,0,0,0,71,93.92c2.48,3,5.38,5.11,9.5,5.12,3.18,0,6.37,0,9.55.08A69,69,0,0,0,101.4,85.31c-3.28-.53-6.5-1.23-9.72-2Zm-9.54,19.82c-3.21.53-4.18,1.87-2.76,4.13a66.52,66.52,0,0,0,6.75-4.8l-4,.67Z"/><path class="cls-5" d="M67.74,72.42c1.8.68,3.6,1.38,5.38,2.08A69.07,69.07,0,0,0,86.5,57C78,53.33,69.56,49.53,61.22,45.5c-2.24-1.08-3.11-.45-3.1,2.16.06,7.16,2.18,13.83,5,20.32A7.88,7.88,0,0,0,67.74,72.42Zm0,5.25c-3.16-.74-4,.11-3.24,3.17l.15.55Q66.94,79.8,69.14,78Z"/></g></g></svg>
