<svg xmlns="http://www.w3.org/2000/svg" viewBox="0 0 200 200"><defs><style>.cls-1{fill:#b3dfff;}.cls-2{fill:#439dff;}</style></defs><g id="图层_2" data-name="图层 2"><g id="图层_1-2" data-name="图层 1"><path class="cls-1" d="M0,100A100,100,0,1,0,100,0,100,100,0,0,0,0,100Z"/><path class="cls-2" d="M93,99.65a10.23,10.23,0,0,0,14,0l35.94-33.72a6.4,6.4,0,0,0-2.16-.44H59.22a6.49,6.49,0,0,0-2.26.44Zm53.48,31a6.13,6.13,0,0,0,.53-2.42V71.77a6.27,6.27,0,0,0-.62-2.73l-31.72,29.8Z"/><path class="cls-2" d="M111.29,102.07l-1.09,1a15,15,0,0,1-20.4,0l-1.09-1L56.8,134a6.36,6.36,0,0,0,2.42.54h81.56a6.4,6.4,0,0,0,2.51-.54ZM53.57,69.13A6.17,6.17,0,0,0,53,71.77v56.46a6.18,6.18,0,0,0,.53,2.51l31.81-31.9Z"/></g></g></svg>
