<svg xmlns="http://www.w3.org/2000/svg" viewBox="0 0 200 200"><defs><style>.cls-1{fill:#a4faa8;}.cls-2{fill:#fff;}.cls-3{fill:#39b54a;}</style></defs><g id="图层_2" data-name="图层 2"><g id="图层_1-2" data-name="图层 1"><circle class="cls-1" cx="100" cy="100" r="100"/><path class="cls-2" d="M140.53,64.83a8,8,0,0,0-5.7-2.34H65.17a8,8,0,0,0-8,8v48.23a8,8,0,0,0,8,8H86l8.36,8.35a7.86,7.86,0,0,0,5.67,2.36,8,8,0,0,0,5.67-2.36L114,126.8h20.79a8,8,0,0,0,8-8h0V70.53A8,8,0,0,0,140.53,64.83Z"/><path class="cls-3" d="M100,101.29a6.44,6.44,0,1,0-6.43-6.43A6.43,6.43,0,0,0,100,101.29Z"/><path class="cls-3" d="M120.36,101.29a6.44,6.44,0,1,0-6.43-6.43A6.44,6.44,0,0,0,120.36,101.29Z"/><path class="cls-3" d="M79.64,101.29a6.44,6.44,0,1,0-6.44-6.43A6.43,6.43,0,0,0,79.64,101.29Z"/></g></g></svg>
