<svg xmlns="http://www.w3.org/2000/svg" viewBox="0 0 200 200"><defs><style>.cls-1{fill:#cba8f8;}.cls-2{fill:#fff;}</style></defs><g id="图层_2" data-name="图层 2"><g id="图层_1-2" data-name="图层 1"><path class="cls-1" d="M100,0A100,100,0,1,1,0,100,100,100,0,0,1,100,0"/><path class="cls-2" d="M133.55,89.14a4,4,0,0,1,3.95,4,37.51,37.51,0,0,1-33.56,37.3,1.34,1.34,0,0,1,0,.2v9.87a3.95,3.95,0,0,1-7.9,0V130.39A37.51,37.51,0,0,1,62.5,93.09a3.95,3.95,0,1,1,7.89,0,29.61,29.61,0,0,0,59.22,0A3.94,3.94,0,0,1,133.55,89.14ZM100,55.59A21.71,21.71,0,0,1,121.71,77.3V93.09a21.71,21.71,0,0,1-43.42,0V77.3A21.71,21.71,0,0,1,100,55.59Z"/></g></g></svg>
