<svg xmlns="http://www.w3.org/2000/svg" viewBox="0 0 200 200"><defs><style>.cls-1{fill:#74cdfb;}.cls-2{fill:#fff;}</style></defs><g id="图层_2" data-name="图层 2"><g id="图层_1-2" data-name="图层 1"><circle class="cls-1" cx="100" cy="100" r="100"/><path class="cls-2" d="M50,100a50,50,0,1,1,100,.13c0,28-23.12,50.23-50.82,49.92C72.24,149.72,50,127.33,50,100Zm72.08-3.62-2.16-12.28-16.3.83V96.35Zm-18.48,18.84c.68.06,1.3.14,1.93.17,3.81.18,7.63.33,11.44.54,2.21.13,2.24.19,2.94-2a34.5,34.5,0,0,0,2-10.27H103.61v11.51ZM78.42,96.31h18c0-3.61,0-7.08,0-10.55,0-.78-.32-1-1-1-4.54-.19-9.08-.43-13.62-.59-.37,0-1,.33-1.09.6C79.91,88.54,79.19,92.36,78.42,96.31Zm18,7.36H78.65a36.56,36.56,0,0,0,2.49,11.51,1.49,1.49,0,0,0,1.13.74q6.6-.21,13.21-.6a1.35,1.35,0,0,0,.93-.91C96.47,110.88,96.45,107.35,96.45,103.67ZM73.57,83.39c-3.4-.52-6.73-1-10.06-1.49-.29,0-.84.45-1,.8-1,2.85-2,5.7-2.87,8.61a45.85,45.85,0,0,0-.86,5.14c4.17,0,8,0,11.9,0,.33,0,.87-.67.94-1.09.31-1.78.39-3.6.68-5.39C72.69,87.75,73.14,85.61,73.57,83.39ZM59,103.66c.08,3.88,1.9,10.85,3.64,13.87a1.27,1.27,0,0,0,1,.61c3.43-.45,6.85-1,10.2-1.46-.86-4.35-1.71-8.64-2.57-13Zm82.09-7.22A40.36,40.36,0,0,0,138,83.82c-.84-2-.85-2-3-1.71-2.65.38-5.29.79-7.75,1.16.59,4.24,1.15,8.3,1.77,12.36a1.18,1.18,0,0,0,.81.77C133.46,96.46,137.18,96.44,141.07,96.44Zm-14.29,20.31c3.12.46,6.36,1,9.6,1.38a1.22,1.22,0,0,0,1-.58,39,39,0,0,0,3.71-13.89H129.39C128.51,108.1,127.65,112.4,126.78,116.75ZM103.63,61V77.77l13.43-.62A40.94,40.94,0,0,0,103.63,61ZM96.31,77.74V61.46A40.6,40.6,0,0,0,83.53,77.17ZM67,124.77a40.26,40.26,0,0,0,21.3,14.64,79.13,79.13,0,0,1-10.94-15.25,1.29,1.29,0,0,0-1-.53c-3,.32-6,.72-9.32,1.14Zm45.72,14.52a41.28,41.28,0,0,0,20.25-14.48c-2.19-.32-4.12-.61-6-.87-3.24-.43-3.24-.42-4.89,2.41a14.36,14.36,0,0,1-.78,1.24C118.41,131.46,115.59,135.32,112.69,139.29Zm-9.09-1.52a65.35,65.35,0,0,0,12.2-14.94l-12.2-.5ZM84.74,122.83a62.86,62.86,0,0,0,11.59,14.3V122.34Zm.57-61.12A38.7,38.7,0,0,0,67,75.31c2.91.36,5.48.63,8,1,.86.13,1.14-.24,1.53-.91Q79.68,70,83,64.62A25.83,25.83,0,0,1,85.31,61.71ZM133,75.3a41.33,41.33,0,0,0-17.41-13.49c.07.31.07.43.12.49a52.28,52.28,0,0,1,8.48,13.33,1.38,1.38,0,0,0,1.1.62C127.78,76,130.24,75.66,133,75.3Z"/></g></g></svg>
