<svg xmlns="http://www.w3.org/2000/svg" viewBox="0 0 200 200"><defs><style>.cls-1{fill:#74cdfb;}.cls-2{fill:#fff;}</style></defs><g id="图层_2" data-name="图层 2"><g id="图层_1-2" data-name="图层 1"><circle class="cls-1" cx="100" cy="100" r="100"/><path class="cls-2" d="M128,97.74a6.16,6.16,0,0,0-2.69,1.55,6,6,0,0,0,0,8.48l.07.07a6.19,6.19,0,0,0,3.66,1.73,19,19,0,0,1,10.47,5.73,1.45,1.45,0,0,0,2.06,0,1.44,1.44,0,0,0,.05-2,1.69,1.69,0,0,0-.25-.2,18.55,18.55,0,0,1-5.8-11.14A6.09,6.09,0,0,0,128,97.74Z"/><path class="cls-2" d="M152.91,119a6.15,6.15,0,0,0-7.53-4.27,6.25,6.25,0,0,0-2.75,1.58h0a6,6,0,0,0-1.75,3.63,18.51,18.51,0,0,1-5.81,10.34,1.44,1.44,0,0,0-.05,2h0a1.48,1.48,0,0,0,2.09,0,.92.92,0,0,0,.18-.22,18.9,18.9,0,0,1,11.3-5.71A6.05,6.05,0,0,0,152.91,119Z"/><path class="cls-2" d="M103.6,122.3A42.13,42.13,0,0,1,86.25,124l-.93-.13a45.28,45.28,0,0,1-6.23-1.28,4.31,4.31,0,0,0-3.35.34l-.25.13-7.74,4.5-.33.2a.84.84,0,0,1-.38.14.52.52,0,0,1-.49-.54l.29-1.18.35-1.28.56-2.11.64-2.36a3.16,3.16,0,0,0-1.17-3.56,33.74,33.74,0,0,1-7.82-8,25.82,25.82,0,0,1-1.91-26.39A29.9,29.9,0,0,1,63,74.86,38.1,38.1,0,0,1,86.25,64.1a44.46,44.46,0,0,1,9.51,0,38.4,38.4,0,0,1,23.13,10.83,29.55,29.55,0,0,1,5.44,7.64,25.79,25.79,0,0,1,2.75,11.5c0,.41,0,.83-.06,1.23a6.17,6.17,0,0,1,7.52.88l.28.33a32.55,32.55,0,0,0-3.35-17.16,36.74,36.74,0,0,0-6.79-9.52,46.4,46.4,0,0,0-28-13.17,48.43,48.43,0,0,0-11.35-.1A46.39,46.39,0,0,0,57.25,69.63a36.43,36.43,0,0,0-6.86,9.52,32.77,32.77,0,0,0,2.37,33.48,51.74,51.74,0,0,0,8.05,9.09L59.49,132l-.14.43a1.39,1.39,0,0,0-.06.4l0,.33,0,.33a3.33,3.33,0,0,0,3.62,3,3.43,3.43,0,0,0,1.4-.44h.06l.2-.14,3.16-1.56,9.41-4.66a51.06,51.06,0,0,0,30.62-1A6,6,0,0,1,103.6,122.3Z"/><path class="cls-2" d="M135.55,136.08a6.1,6.1,0,0,0-5.27-4.42,18.8,18.8,0,0,1-10.45-5.76,1.52,1.52,0,0,0-2.09,0,1.45,1.45,0,0,0,0,2,.62.62,0,0,0,.22.17,18.55,18.55,0,0,1,5.8,11.16,6.14,6.14,0,0,0,7.53,4.23,6,6,0,0,0,4.3-7.36S135.55,136.11,135.55,136.08Z"/><path class="cls-2" d="M124.33,110.9a1.45,1.45,0,0,0,.13-2h0a1.51,1.51,0,0,0-2.1-.12h0l-.1.1a18.8,18.8,0,0,1-11.47,5.92,6,6,0,0,0-4.34,7.34,6.12,6.12,0,0,0,1.63,2.77,6.14,6.14,0,0,0,10.42-3.64A18.5,18.5,0,0,1,124.33,110.9Z"/></g></g></svg>
