<svg width="128" height="128" viewBox="0 0 128 128" xmlns="http://www.w3.org/2000/svg" xmlns:xlink="http://www.w3.org/1999/xlink">
    <path id="-" fill="#0079fe" stroke="none" opacity="0.1" d="M 0 64 C 0 86.864998 12.198331 107.993126 32 119.425629 C 51.80167 130.858124 76.198334 130.858124 96 119.425629 C 115.801666 107.993126 128 86.864998 128 64 C 128 41.135002 115.801666 20.006874 96 8.574371 C 76.198334 -2.858124 51.80167 -2.858124 32 8.574371 C 12.198331 20.006874 0 41.135002 0 64 Z"/>
    <path id="path1" fill="#63a1ff" stroke="none" d="M 89.604164 90.306168 L 67.682831 90.306168 L 60.758957 98.136559 C 59.812168 99.207268 58.191841 99.294067 57.139854 98.330429 C 56.087868 97.366791 56.002586 95.717628 56.949375 94.646919 L 64.636871 85.953247 C 65.122871 85.403687 65.815208 85.089905 66.541664 85.089966 L 89.604164 85.089966 C 91.962883 85.089966 93.875 83.143814 93.875 80.743134 L 93.875 44.229706 C 93.875 41.829018 91.962883 39.882866 89.604164 39.882866 L 40.0625 39.882866 C 37.703785 39.882866 35.791668 41.829018 35.791668 44.229706 L 35.791668 80.743134 C 35.791668 83.143814 37.703785 85.089966 40.0625 85.089966 L 51.166668 85.089966 C 52.581894 85.089966 53.729168 86.257652 53.729168 87.698067 C 53.729168 89.138481 52.581894 90.306168 51.166668 90.306168 L 40.0625 90.306168 C 34.873436 90.306168 30.666666 86.024536 30.666666 80.743134 L 30.666666 44.229706 C 30.666666 38.948303 34.873436 34.666664 40.0625 34.666664 L 89.604164 34.666664 C 94.793228 34.666664 99 38.948303 99 44.229706 L 99 80.743134 C 99 86.024536 94.793228 90.306168 89.604164 90.306168 Z M 80.208336 52.923378 C 81.623558 52.923378 82.770836 54.091064 82.770836 55.531479 C 82.770836 56.971893 81.623558 58.139587 80.208336 58.139587 L 49.458332 58.139587 C 48.043102 58.139587 46.895832 56.971893 46.895832 55.531479 C 46.895832 54.091064 48.043102 52.923378 49.458332 52.923378 L 80.208336 52.923378 Z M 64.833336 66.833252 C 66.248558 66.833252 67.395836 68.000946 67.395836 69.441353 C 67.395836 70.881767 66.248558 72.049454 64.833336 72.049454 L 49.458332 72.049454 C 48.043102 72.049454 46.895832 70.881767 46.895832 69.441353 C 46.895832 68.000946 48.043102 66.833252 49.458332 66.833252 L 64.833336 66.833252 Z"/>
</svg>
