<svg width="128" height="128" viewBox="0 0 128 128" xmlns="http://www.w3.org/2000/svg" xmlns:xlink="http://www.w3.org/1999/xlink">
    <path id="-" fill="#0079fe" stroke="none" opacity="0.1" d="M 0 64 C 0 86.864998 12.198331 107.993126 32 119.425629 C 51.80167 130.858124 76.198334 130.858124 96 119.425629 C 115.801666 107.993126 128 86.864998 128 64 C 128 41.135002 115.801666 20.006874 96 8.574371 C 76.198334 -2.858124 51.80167 -2.858124 32 8.574371 C 12.198331 20.006874 0 41.135002 0 64 Z"/>
    <path id="path1" fill="#0088fa" stroke="none" d="M 65.880936 33.292091 C 67.286865 33.292091 68.416634 32.279732 68.416634 31.022194 L 68.416634 26.482399 C 68.416634 25.232765 67.278503 24.212502 65.880936 24.212502 C 64.474998 24.212502 63.34523 25.224861 63.34523 26.482399 L 63.34523 31.022194 C 63.336861 32.279732 64.474998 33.292091 65.880936 33.292091 Z M 35.711926 41.311874 C 36.724533 42.18187 38.331314 42.158142 39.302078 41.256508 C 40.256104 40.378601 40.256104 38.98661 39.302078 38.108711 L 35.711926 34.897629 C 34.699318 34.027634 33.092533 34.051361 32.121769 34.952995 C 31.167744 35.830894 31.167744 37.222893 32.121769 38.1008 L 35.711926 41.311874 Z M 100.259377 37.167526 C 99.263504 36.281715 97.656723 36.281715 96.66922 37.167526 L 93.070694 40.370697 C 92.099937 41.272331 92.125038 42.703865 93.12928 43.57386 C 94.116776 44.420128 95.673355 44.420128 96.660851 43.57386 L 100.259377 40.370697 C 101.246872 39.484879 101.246872 38.053345 100.259377 37.167526 Z M 97.623245 85.460205 L 93.815506 85.460205 L 93.815506 60.515053 C 93.815506 46.73748 81.304367 35.569901 65.880936 35.569901 C 50.457497 35.569901 37.937988 46.729576 37.937988 60.515053 L 37.937988 85.460205 L 34.130249 85.460205 C 32.724312 85.460205 31.594545 86.472565 31.594545 87.730103 C 31.594545 88.979729 32.732681 90 34.130249 90 L 97.623245 90 C 99.029182 90 100.158951 88.98764 100.158951 87.730103 C 100.158951 86.472565 99.029182 85.460205 97.623245 85.460205 Z M 68.416634 85.460205 L 68.416634 76.388519 C 68.416634 75.138885 67.278503 74.118622 65.880936 74.118622 C 64.474998 74.118622 63.34523 75.130981 63.34523 76.388519 L 63.34523 85.460205 L 43.017761 85.460205 L 43.017761 60.515053 C 43.017761 49.23674 53.252628 40.101784 65.872566 40.101784 C 78.4925 40.101784 88.727364 49.23674 88.727364 60.515053 L 88.727364 85.460205 L 68.416634 85.460205 Z M 65.880936 53.705353 C 60.273933 53.705353 55.721382 57.770607 55.721382 62.777039 C 55.721382 67.78347 60.265564 71.848724 65.880936 71.848724 C 71.48793 71.848724 76.040482 67.78347 76.040482 62.777039 C 76.040482 57.770607 71.48793 53.705353 65.880936 53.705353 Z M 65.880936 67.316833 C 63.077435 67.316833 60.801159 65.28421 60.801159 62.777039 C 60.801159 60.269867 63.077435 58.237244 65.880936 58.237244 C 68.684433 58.237244 70.960709 60.269867 70.960709 62.777039 C 70.960709 65.28421 68.684433 67.316833 65.880936 67.316833 Z"/>
</svg>
