<svg t="1694787151855" class="icon" viewBox="0 0 1024 1024" version="1.1" xmlns="http://www.w3.org/2000/svg" p-id="43848" width="128" height="128"><path d="M512 512m-512 0a512 512 0 1 0 1024 0 512 512 0 1 0-1024 0Z" fill="#0079FE" opacity=".1" p-id="43849"></path><path d="M512 352.5632a155.9552 155.9552 0 1 0 155.9552 155.9552A156.16 156.16 0 0 0 512 352.5632m0-40.0384a195.9936 195.9936 0 1 1-195.9936 195.9936A195.9936 195.9936 0 0 1 512 312.5248z m0 0" fill="#0079FE" p-id="43850"></path><path d="M512 422.5024a74.9568 74.9568 0 1 1 74.9568-74.9568A75.0592 75.0592 0 0 1 512 422.5024z m0 0" fill="#FFFFFF" p-id="43851"></path><path d="M512 292.5568a54.9888 54.9888 0 1 0 54.9888 54.9888A55.0912 55.0912 0 0 0 512 292.5568m0-40.0384a95.0272 95.0272 0 1 1-95.0272 95.0272A95.0272 95.0272 0 0 1 512 252.5184z m0 0" fill="#0079FE" p-id="43852"></path><path d="M672.9728 710.5536A74.9568 74.9568 0 1 1 747.52 635.4944a75.0592 75.0592 0 0 1-74.9568 74.9568z m0 0" fill="#FFFFFF" p-id="43853"></path><path d="M672.9728 580.5056a54.9888 54.9888 0 1 0 54.9888 54.9888 55.0912 55.0912 0 0 0-54.9888-54.9888m0-40.0384a95.0272 95.0272 0 1 1-95.0272 95.0272 95.0272 95.0272 0 0 1 95.0272-95.0272z m0 0" fill="#0079FE" p-id="43854"></path><path d="M351.0272 710.5536a74.9568 74.9568 0 1 1 74.9568-74.9568 75.0592 75.0592 0 0 1-74.9568 74.9568z m0 0" fill="#FFFFFF" p-id="43855"></path><path d="M351.0272 580.5056a54.9888 54.9888 0 1 0 54.9888 54.9888 55.0912 55.0912 0 0 0-54.9888-54.9888m0-40.0384A95.0272 95.0272 0 1 1 256 635.4944a95.0272 95.0272 0 0 1 95.0272-95.0272z m0 0" fill="#0079FE" p-id="43856"></path></svg>
